<svg width="143" height="16" viewBox="0 0 143 16" fill="none" xmlns="http://www.w3.org/2000/svg">
<path d="M8.05144 15.8966C6.58276 15.8966 5.25481 15.597 4.06761 15C2.8804 14.403 1.93835 13.5131 1.24146 12.3327C0.544576 11.1524 0.197266 9.70641 0.197266 7.99712C0.197266 6.69644 0.408379 5.55238 0.832868 4.56949C1.25736 3.58659 1.8362 2.76032 2.56941 2.09522C3.30262 1.43012 4.1516 0.930735 5.1118 0.597051C6.07201 0.263366 7.09123 0.0976562 8.16494 0.0976562C9.02754 0.0976562 9.82203 0.195262 10.5484 0.392749C11.2748 0.590235 11.9558 0.862625 12.5914 1.20993L12.6822 4.002H12.4552L11.3202 2.18602C11.1681 1.89774 11.0024 1.63669 10.8208 1.40288C10.6392 1.16908 10.4122 0.989743 10.1398 0.869435C9.91284 0.765017 9.69037 0.683301 9.47019 0.631092C9.25 0.578883 8.97533 0.551649 8.64164 0.551649C7.76315 0.551649 6.96639 0.78545 6.2468 1.25533C5.52721 1.72521 4.9529 2.49927 4.52161 3.58204C4.09031 4.66482 3.87466 6.14256 3.87466 8.01982C3.87466 9.89708 4.07896 11.3521 4.48756 12.4349C4.89615 13.5177 5.4523 14.2895 6.156 14.7503C6.85969 15.2111 7.64965 15.4426 8.52814 15.4426C9.01165 15.4426 9.39755 15.4085 9.68584 15.3404C9.97413 15.2724 10.2601 15.1702 10.5484 15.034C10.8367 14.9137 11.0546 14.7344 11.2067 14.5006C11.3588 14.2668 11.495 14.0125 11.6153 13.7401L12.6141 11.5156H12.8411L12.773 14.7616C12.1374 15.0953 11.4269 15.3677 10.6392 15.5788C9.85154 15.7899 8.98895 15.8966 8.05144 15.8966Z" fill="#FDF9F5"/>
<path d="M23.17 15.8966C22.2461 15.8966 21.3586 15.7309 20.5028 15.3972C19.647 15.0658 18.8843 14.5687 18.2101 13.9104C17.5359 13.2521 17.0024 12.4304 16.6097 11.4475C16.217 10.4646 16.0195 9.3137 16.0195 7.99712C16.0195 6.68055 16.217 5.55238 16.6097 4.56949C17.0024 3.58659 17.5404 2.76486 18.2214 2.10657C18.9024 1.44828 19.6697 0.948892 20.5255 0.608398C21.3813 0.267903 22.262 0.0976562 23.17 0.0976562C24.078 0.0976562 24.9815 0.261085 25.8372 0.58569C26.693 0.910295 27.4558 1.40288 28.1299 2.06117C28.8019 2.71946 29.3376 3.54573 29.7303 4.53543C30.123 5.5274 30.3205 6.68055 30.3205 7.99712C30.3205 9.3137 30.123 10.4214 29.7303 11.4134C29.3376 12.4054 28.8019 13.2294 28.1299 13.8877C27.4558 14.546 26.693 15.0454 25.8372 15.3859C24.9815 15.7263 24.0916 15.8966 23.17 15.8966ZM23.17 15.4199C24.0031 15.4199 24.675 15.1974 25.1903 14.7503C25.7056 14.3031 26.0779 13.5404 26.3139 12.4576C26.5478 11.3748 26.6658 9.888 26.6658 7.99712C26.6658 6.10625 26.5478 4.59672 26.3139 3.51395C26.0779 2.43118 25.7056 1.66847 25.1903 1.22129C24.675 0.774108 24.0008 0.551649 23.17 0.551649C22.3392 0.551649 21.6877 0.774108 21.1724 1.22129C20.6571 1.66847 20.2826 2.43118 20.0488 3.51395C19.815 4.59672 19.6969 6.09036 19.6969 7.99712C19.6969 9.90389 19.815 11.3748 20.0488 12.4576C20.2826 13.5404 20.6571 14.3031 21.1724 14.7503C21.6877 15.1974 22.3528 15.4199 23.17 15.4199Z" fill="#FDF9F5"/>
<path d="M33.3857 15.4896V15.2626L34.1348 15.0356C34.4072 14.9607 34.6047 14.8131 34.725 14.5929C34.8453 14.3727 34.9066 14.1117 34.9066 13.8098V2.89127C34.7409 2.52808 34.607 2.25569 34.5094 2.07409C34.4118 1.8925 34.3005 1.73813 34.1802 1.60874C34.0599 1.47935 33.8919 1.31819 33.6808 1.12071L33.2949 0.734809V0.507812H37.3128L44.8492 10.7907V2.23298C44.8492 1.93107 44.7992 1.65868 44.7016 1.4158C44.604 1.17291 44.402 1.01402 44.1001 0.939111L43.351 0.734809V0.507812H46.5971V0.734809L45.9842 0.939111C45.7118 1.02991 45.5461 1.1888 45.4848 1.4158C45.4235 1.64279 45.394 1.90838 45.394 2.21028V15.5577H44.1228L35.4514 3.64036V13.8098C35.4514 14.1117 35.4968 14.3705 35.5876 14.5816C35.6784 14.7927 35.8668 14.9448 36.1551 15.0356L36.8361 15.2626V15.4896H33.3857Z" fill="#FDF9F5"/>
<path d="M53.2239 15.4896V15.2626L54.1546 15.0356C54.7743 14.8994 55.0853 14.5203 55.0853 13.9006V0.961805H53.1558C52.5951 0.961805 52.1956 1.10936 51.9527 1.40445C51.7098 1.69955 51.4533 2.10359 51.1809 2.61888L50.3637 4.20785H50.1367L50.2502 0.507812H63.3481L63.4389 4.20785H63.2119L62.3947 2.61888C62.1382 2.10359 61.8885 1.69955 61.6456 1.40445C61.4027 1.10936 61.0032 0.961805 60.4425 0.961805H58.513V13.9006C58.513 14.5203 58.824 14.8994 59.4437 15.0356L60.3744 15.2626V15.4896H53.2239Z" fill="#FDF9F5"/>
<path d="M66.6855 15.4896V15.2626L67.1395 15.081C67.4415 14.9743 67.6435 14.8313 67.7411 14.6497C67.8387 14.4681 67.8886 14.2252 67.8886 13.9233V2.07409C67.8886 1.77219 67.8432 1.5293 67.7524 1.3477C67.6616 1.1661 67.4573 1.02309 67.1395 0.916403L66.6855 0.734809V0.507812H72.5194V0.734809L72.0654 0.916403C71.7635 1.02309 71.5615 1.1661 71.4639 1.3477C71.3663 1.5293 71.3163 1.77219 71.3163 2.07409V13.9233C71.3163 14.2252 71.3663 14.4635 71.4639 14.6383C71.5615 14.8131 71.7635 14.9607 72.0654 15.081L72.5194 15.2626V15.4896H66.6855Z" fill="#FDF9F5"/>
<path d="M76.083 15.4896V15.2626L76.8321 15.0356C77.1045 14.9607 77.302 14.8131 77.4223 14.5929C77.5426 14.3727 77.6039 14.1117 77.6039 13.8098V2.89127C77.4382 2.52808 77.3043 2.25569 77.2066 2.07409C77.109 1.8925 76.9978 1.73813 76.8775 1.60874C76.7572 1.47935 76.5892 1.31819 76.3781 1.12071L75.9922 0.734809V0.507812H80.0101L87.5465 10.7907V2.23298C87.5465 1.93107 87.4965 1.65868 87.3989 1.4158C87.3013 1.17291 87.0993 1.01402 86.7974 0.939111L86.0482 0.734809V0.507812H89.2943V0.734809L88.6814 0.939111C88.409 1.02991 88.2433 1.1888 88.182 1.4158C88.1208 1.64279 88.0912 1.90838 88.0912 2.21028V15.5577H86.8201L78.1487 3.64036V13.8098C78.1487 14.1117 78.1941 14.3705 78.2849 14.5816C78.3757 14.7927 78.5641 14.9448 78.8524 15.0356L79.5334 15.2626V15.4896H76.083Z" fill="#FDF9F5"/>
<path d="M99.8507 15.8982C98.6998 15.8982 97.6828 15.6939 96.7975 15.2853C95.9122 14.8767 95.2244 14.2297 94.7318 13.3444C94.2392 12.4592 93.9941 11.2901 93.9941 9.83735V2.00598C93.9941 1.43168 93.699 1.0526 93.1088 0.871001L92.6094 0.734809V0.507812H98.8973V0.734809L98.239 0.916403C97.6783 1.0526 97.3991 1.43168 97.3991 2.05138V10.4276C97.3991 11.8349 97.6942 12.8746 98.2844 13.5488C98.8746 14.2229 99.7213 14.5589 100.827 14.5589C101.932 14.5589 102.888 14.2025 103.562 13.492C104.236 12.7815 104.572 11.7736 104.572 10.473V2.14219C104.572 1.84028 104.522 1.57016 104.425 1.33635C104.327 1.10255 104.125 0.94591 103.823 0.871001L103.256 0.734809V0.507812H106.434V0.734809L105.821 0.893709C105.532 0.954998 105.344 1.098 105.253 1.32499C105.162 1.55199 105.117 1.81758 105.117 2.11948V10.4276C105.117 11.533 104.897 12.4978 104.459 13.3218C104.021 14.1458 103.408 14.7813 102.62 15.2285C101.832 15.6757 100.911 15.8982 99.8507 15.8982Z" fill="#FDF9F5"/>
<path d="M116.534 15.8982C115.383 15.8982 114.366 15.6939 113.481 15.2853C112.596 14.8767 111.908 14.2297 111.415 13.3444C110.923 12.4592 110.678 11.2901 110.678 9.83735V2.00598C110.678 1.43168 110.383 1.0526 109.792 0.871001L109.293 0.734809V0.507812H115.581V0.734809L114.923 0.916403C114.362 1.0526 114.083 1.43168 114.083 2.05138V10.4276C114.083 11.8349 114.378 12.8746 114.968 13.5488C115.558 14.2229 116.405 14.5589 117.51 14.5589C118.616 14.5589 119.571 14.2025 120.246 13.492C120.92 12.7815 121.256 11.7736 121.256 10.473V2.14219C121.256 1.84028 121.206 1.57016 121.108 1.33635C121.011 1.10255 120.809 0.94591 120.507 0.871001L119.939 0.734809V0.507812H123.117V0.734809L122.504 0.893709C122.216 0.954998 122.028 1.098 121.937 1.32499C121.846 1.55199 121.801 1.81758 121.801 2.11948V10.4276C121.801 11.533 121.58 12.4978 121.142 13.3218C120.704 14.1458 120.091 14.7813 119.304 15.2285C118.516 15.6757 117.594 15.8982 116.534 15.8982Z" fill="#FDF9F5"/>
<path d="M126 15.4896V15.2626L126.454 15.1037C126.969 14.938 127.226 14.5067 127.226 13.8098V2.18759C127.226 1.88569 127.192 1.6428 127.124 1.4612C127.056 1.2796 126.878 1.12752 126.59 1.00721L126 0.734809V0.507812H130.381L134.581 11.4944L138.53 0.507812H143.002V0.734809L142.639 0.871001C142.351 0.977689 142.156 1.12524 142.049 1.31365C141.942 1.50205 141.89 1.74948 141.89 2.05138V13.9233C141.89 14.2252 141.929 14.4613 142.003 14.627C142.078 14.7927 142.26 14.938 142.548 15.0583L143.002 15.2626V15.4896H137.35V15.2626L137.827 15.0583C138.115 14.938 138.297 14.7927 138.371 14.627C138.446 14.4613 138.485 14.2252 138.485 13.9233V8.81587L138.53 2.32378L133.786 15.4896H132.651L127.702 2.48268L127.771 8.13488V13.8552C127.771 14.1889 127.821 14.4567 127.918 14.661C128.016 14.8653 128.209 15.0129 128.497 15.1037L128.996 15.2626V15.4896H126Z" fill="#FDF9F5"/>
</svg>
