<svg width="54" height="24" viewBox="0 0 54 24" fill="none" xmlns="http://www.w3.org/2000/svg">
<path d="M53.1973 12.0823C53.1928 11.6919 53.0498 6.06237 48.4871 2.95706C45.9175 1.20919 43.2616 1.15471 42.1084 1.1479C37.2756 1.11385 33.7004 3.87866 30.788 6.13274C30.334 6.48458 29.9798 6.77514 29.6552 7.06116C28.3296 8.23019 27.2854 9.25848 26.5998 9.96217V9.98941C24.3276 7.4811 20.5753 3.9059 15.8991 1.84251C13.9106 0.966301 12.3715 0.634888 10.8007 0.653048C9.91538 0.664398 7.13011 0.807406 4.49919 2.73234C0.0363813 6.00108 -0.00221019 11.4876 5.97978e-05 11.9143C0.00459978 12.3048 0.147609 17.9343 4.71029 21.0396C7.27992 22.7875 9.93582 22.8419 11.089 22.8487C15.9218 22.8828 19.497 20.118 22.4094 17.8639C22.8634 17.5121 23.2175 17.2215 23.5421 16.9355C24.8678 15.7665 25.912 14.7382 26.5976 14.0345V14.0072C28.8698 16.5155 32.6221 20.0907 37.2983 22.1541C39.2868 23.0303 40.8259 23.3618 42.3967 23.3436C43.282 23.3322 46.0673 23.1892 48.6982 21.2643C53.161 17.9956 53.1996 12.5091 53.1973 12.0823ZM8.38315 20.2996C5.04172 19.3916 2.32453 15.6938 2.06348 11.9484C2.04986 11.7554 1.80697 7.14514 5.35043 4.2464C7.7203 2.31012 10.4511 2.23748 11.4953 2.22386C17.8104 2.14214 22.8793 7.49925 25.8507 10.6727C19.2995 16.5655 13.4134 21.6684 8.38315 20.3018V20.2996ZM47.8447 19.7525C45.4748 21.6888 42.744 21.7614 41.6998 21.7751C35.3847 21.8568 30.3158 16.4997 27.3444 13.3262C33.8956 7.43342 39.7817 2.33055 44.812 3.69707C48.1534 4.60505 50.8706 8.30282 51.1316 12.0483C51.1453 12.2412 51.3881 16.8515 47.8447 19.7502V19.7525Z" fill="#FDF9F5"/>
</svg>
