<svg width="137" height="21" viewBox="0 0 137 21" fill="none" xmlns="http://www.w3.org/2000/svg">
<path d="M10.22 20.476C8.40933 20.476 6.776 20.1027 5.32 19.356C3.864 18.6093 2.70667 17.508 1.848 16.052C1.008 14.596 0.588 12.8227 0.588 10.732C0.588 9.164 0.84 7.77333 1.344 6.56C1.86667 5.34667 2.576 4.32933 3.472 3.508C4.38667 2.668 5.432 2.04267 6.608 1.632C7.784 1.20267 9.03467 0.987999 10.36 0.987999C11.3867 0.987999 12.348 1.10933 13.244 1.352C14.14 1.576 14.9987 1.912 15.82 2.36L15.932 6.028H15.176L14 3.816C13.8133 3.44267 13.608 3.10667 13.384 2.808C13.1787 2.50933 12.908 2.29467 12.572 2.164C12.1053 1.94 11.5547 1.828 10.92 1.828C9.81867 1.828 8.81067 2.108 7.896 2.668C7 3.228 6.28133 4.16133 5.74 5.468C5.19867 6.756 4.928 8.52 4.928 10.76C4.928 12.9813 5.18 14.7453 5.684 16.052C6.20667 17.3587 6.90667 18.292 7.784 18.852C8.66133 19.3933 9.65067 19.664 10.752 19.664C11.256 19.664 11.6667 19.6267 11.984 19.552C12.3013 19.4773 12.6187 19.3747 12.936 19.244C13.3093 19.0947 13.5987 18.88 13.804 18.6C14.0093 18.3013 14.1867 17.9653 14.336 17.592L15.4 15.044H16.156L16.044 19.076C15.2413 19.524 14.3547 19.8693 13.384 20.112C12.4133 20.3547 11.3587 20.476 10.22 20.476ZM24.4591 20.392C23.0778 20.392 21.8644 20.1027 20.8191 19.524C19.7924 18.9453 18.9898 18.124 18.4111 17.06C17.8511 15.996 17.5711 14.7267 17.5711 13.252C17.5711 11.7773 17.8698 10.508 18.4671 9.444C19.0831 8.38 19.9044 7.568 20.9311 7.008C21.9764 6.42933 23.1524 6.14 24.4591 6.14C25.7658 6.14 26.9324 6.42933 27.9591 7.008C29.0044 7.568 29.8258 8.38 30.4231 9.444C31.0391 10.4893 31.3471 11.7587 31.3471 13.252C31.3471 14.7267 31.0578 16.0053 30.4791 17.088C29.9191 18.152 29.1258 18.9733 28.0991 19.552C27.0724 20.112 25.8591 20.392 24.4591 20.392ZM24.4591 19.608C25.1311 19.608 25.6724 19.4307 26.0831 19.076C26.5124 18.7027 26.8204 18.0587 27.0071 17.144C27.1938 16.2293 27.2871 14.9507 27.2871 13.308C27.2871 11.6467 27.1938 10.3587 27.0071 9.444C26.8204 8.51067 26.5124 7.86667 26.0831 7.512C25.6724 7.13867 25.1311 6.952 24.4591 6.952C23.7871 6.952 23.2458 7.13867 22.8351 7.512C22.4244 7.86667 22.1164 8.51067 21.9111 9.444C21.7244 10.3587 21.6311 11.6467 21.6311 13.308C21.6311 14.9507 21.7244 16.2293 21.9111 17.144C22.1164 18.0587 22.4244 18.7027 22.8351 19.076C23.2458 19.4307 23.7871 19.608 24.4591 19.608ZM32.6349 20V19.468L33.0829 19.356C33.6989 19.1693 34.0069 18.712 34.0069 17.984V9.724C33.9882 9.332 33.9229 9.03333 33.8109 8.828C33.6989 8.604 33.4562 8.45467 33.0829 8.38L32.6349 8.268V7.764L37.1709 6.14L37.5069 6.448L37.7029 8.184C38.3749 7.58667 39.1215 7.10133 39.9429 6.728C40.7829 6.336 41.6042 6.14 42.4069 6.14C43.6389 6.14 44.5815 6.476 45.2349 7.148C45.9069 7.82 46.2429 8.84667 46.2429 10.228V18.012C46.2429 18.74 46.5789 19.1973 47.2509 19.384L47.5589 19.468V20H41.1189V19.468L41.5389 19.356C42.1549 19.1507 42.4629 18.6933 42.4629 17.984V9.668C42.4629 9.01467 42.3229 8.53867 42.0429 8.24C41.7629 7.94133 41.2962 7.792 40.6429 7.792C39.7282 7.792 38.7762 8.19333 37.7869 8.996V18.012C37.7869 18.74 38.1135 19.1973 38.7669 19.384L39.0469 19.468V20H32.6349ZM53.8403 20.392C52.6829 20.392 51.7683 20.112 51.0963 19.552C50.4429 18.9733 50.1163 18.04 50.1163 16.752C50.1163 16.304 50.1163 15.884 50.1163 15.492C50.1349 15.0813 50.1443 14.6053 50.1443 14.064V7.428H48.1563V6.812L48.9123 6.7C49.4536 6.60667 49.9109 6.43867 50.2843 6.196C50.6763 5.95333 51.0309 5.61733 51.3483 5.188L53.1683 2.668H54.0083L53.9243 6.56H57.1163V7.428H53.8963V16.976C53.8963 17.648 54.0363 18.152 54.3163 18.488C54.6149 18.824 54.9789 18.992 55.4083 18.992C55.7816 18.992 56.1176 18.908 56.4163 18.74C56.7149 18.5533 57.0136 18.3107 57.3123 18.012L57.6763 18.432C57.3216 19.048 56.8269 19.5333 56.1923 19.888C55.5576 20.224 54.7736 20.392 53.8403 20.392ZM61.8594 4.6C61.2434 4.6 60.7208 4.404 60.2914 4.012C59.8621 3.62 59.6474 3.12533 59.6474 2.528C59.6474 1.912 59.8621 1.41733 60.2914 1.044C60.7208 0.651999 61.2434 0.456 61.8594 0.456C62.4754 0.456 62.9981 0.651999 63.4274 1.044C63.8568 1.41733 64.0714 1.912 64.0714 2.528C64.0714 3.12533 63.8568 3.62 63.4274 4.012C62.9981 4.404 62.4754 4.6 61.8594 4.6ZM58.6394 20V19.468L59.0594 19.356C59.4328 19.244 59.6848 19.076 59.8154 18.852C59.9461 18.628 60.0208 18.3293 60.0394 17.956V12.804C60.0394 12.2253 60.0394 11.6933 60.0394 11.208C60.0394 10.704 60.0301 10.1907 60.0114 9.668C60.0114 9.29467 59.9368 9.00533 59.7874 8.8C59.6568 8.576 59.4048 8.42667 59.0314 8.352L58.6394 8.268V7.764L63.5394 6.14L63.8754 6.448L63.7914 10.424V17.984C63.7914 18.3573 63.8568 18.656 63.9874 18.88C64.1368 19.104 64.3888 19.272 64.7434 19.384L65.0514 19.468V20H58.6394ZM66.295 20V19.468L66.743 19.356C67.359 19.1693 67.667 18.712 67.667 17.984V9.724C67.6484 9.332 67.583 9.03333 67.471 8.828C67.359 8.604 67.1164 8.45467 66.743 8.38L66.295 8.268V7.764L70.831 6.14L71.167 6.448L71.363 8.184C72.035 7.58667 72.7817 7.10133 73.603 6.728C74.443 6.336 75.2644 6.14 76.067 6.14C77.299 6.14 78.2417 6.476 78.895 7.148C79.567 7.82 79.903 8.84667 79.903 10.228V18.012C79.903 18.74 80.239 19.1973 80.911 19.384L81.219 19.468V20H74.779V19.468L75.199 19.356C75.815 19.1507 76.123 18.6933 76.123 17.984V9.668C76.123 9.01467 75.983 8.53867 75.703 8.24C75.423 7.94133 74.9564 7.792 74.303 7.792C73.3884 7.792 72.4364 8.19333 71.447 8.996V18.012C71.447 18.74 71.7737 19.1973 72.427 19.384L72.707 19.468V20H66.295ZM87.2484 20.392C86.5204 20.392 85.8578 20.2613 85.2604 20C84.6631 19.72 84.1871 19.272 83.8324 18.656C83.4964 18.0213 83.3378 17.1907 83.3564 16.164L83.4404 9.136C83.4404 8.72533 83.3751 8.42667 83.2444 8.24C83.1138 8.05333 82.8804 7.92267 82.5444 7.848L82.2084 7.736V7.232L86.9964 6.308L87.3044 6.616L87.1644 10.564V16.92C87.1644 17.5547 87.3324 18.0213 87.6684 18.32C88.0231 18.6 88.4618 18.74 88.9844 18.74C89.5258 18.74 90.0111 18.6653 90.4404 18.516C90.8884 18.348 91.3458 18.1053 91.8124 17.788L91.8964 9.164C91.8964 8.73467 91.8311 8.436 91.7004 8.268C91.5884 8.1 91.3644 7.96933 91.0284 7.876L90.7204 7.792V7.288L95.3964 6.308L95.7044 6.616L95.6204 10.564V17.9C95.6204 18.292 95.6671 18.6093 95.7604 18.852C95.8724 19.076 96.1058 19.244 96.4604 19.356L96.8244 19.468V20L92.0924 20.28L91.8404 18.516C91.2058 19.0573 90.5151 19.5053 89.7684 19.86C89.0218 20.2147 88.1818 20.392 87.2484 20.392ZM102.971 20.392C102.243 20.392 101.58 20.2613 100.983 20C100.386 19.72 99.9098 19.272 99.5551 18.656C99.2191 18.0213 99.0604 17.1907 99.0791 16.164L99.1631 9.136C99.1631 8.72533 99.0978 8.42667 98.9671 8.24C98.8364 8.05333 98.6031 7.92267 98.2671 7.848L97.9311 7.736V7.232L102.719 6.308L103.027 6.616L102.887 10.564V16.92C102.887 17.5547 103.055 18.0213 103.391 18.32C103.746 18.6 104.184 18.74 104.707 18.74C105.248 18.74 105.734 18.6653 106.163 18.516C106.611 18.348 107.068 18.1053 107.535 17.788L107.619 9.164C107.619 8.73467 107.554 8.436 107.423 8.268C107.311 8.1 107.087 7.96933 106.751 7.876L106.443 7.792V7.288L111.119 6.308L111.427 6.616L111.343 10.564V17.9C111.343 18.292 111.39 18.6093 111.483 18.852C111.595 19.076 111.828 19.244 112.183 19.356L112.547 19.468V20L107.815 20.28L107.563 18.516C106.928 19.0573 106.238 19.5053 105.491 19.86C104.744 20.2147 103.904 20.392 102.971 20.392ZM113.682 20V19.44L114.298 19.272C114.596 19.1787 114.792 19.048 114.886 18.88C114.979 18.6933 115.035 18.4507 115.054 18.152V12.608C115.054 11.992 115.054 11.4693 115.054 11.04C115.054 10.6107 115.044 10.1067 115.026 9.528C115.026 9.21067 114.979 8.968 114.886 8.8C114.792 8.61333 114.587 8.48267 114.27 8.408L113.682 8.268V7.764L118.218 6.14L118.554 6.448L118.75 8.324C119.403 7.72667 120.131 7.21333 120.934 6.784C121.736 6.35467 122.558 6.14 123.398 6.14C124.331 6.14 125.059 6.32667 125.582 6.7C126.104 7.07333 126.506 7.64267 126.786 8.408C127.495 7.69867 128.279 7.148 129.138 6.756C129.996 6.34533 130.846 6.14 131.686 6.14C132.955 6.14 133.907 6.45733 134.542 7.092C135.176 7.72667 135.494 8.72533 135.494 10.088V18.18C135.494 18.7773 135.755 19.1507 136.278 19.3L136.81 19.44V20H130.51V19.44L131.014 19.3C131.518 19.132 131.77 18.7493 131.77 18.152V9.948C131.77 9.14533 131.62 8.604 131.322 8.324C131.042 8.02533 130.575 7.876 129.922 7.876C129.418 7.876 128.942 7.97867 128.494 8.184C128.046 8.38933 127.551 8.70667 127.01 9.136C127.122 9.696 127.178 10.34 127.178 11.068V18.18C127.196 18.4973 127.252 18.7493 127.346 18.936C127.458 19.104 127.663 19.2253 127.962 19.3L128.438 19.44V20H122.11V19.44L122.698 19.272C122.996 19.1787 123.192 19.048 123.286 18.88C123.398 18.6933 123.454 18.4507 123.454 18.152V9.976C123.454 9.21067 123.314 8.66933 123.034 8.352C122.754 8.03467 122.278 7.876 121.606 7.876C120.747 7.876 119.823 8.28667 118.834 9.108V18.18C118.834 18.796 119.095 19.1693 119.618 19.3L120.094 19.44V20H113.682Z" fill="#1A1717"/>
</svg>
