<svg width="57" height="24" viewBox="0 0 57 24" fill="none" xmlns="http://www.w3.org/2000/svg">
<path d="M56.2631 12.0888C56.2583 11.6759 56.107 5.72188 51.2814 2.43757C48.5637 0.588942 45.7547 0.531322 44.5351 0.52412C39.4238 0.488108 35.6425 3.41229 32.5623 5.7963C32.0821 6.16843 31.7076 6.47574 31.3643 6.77824C29.9622 8.01466 28.8578 9.10222 28.1328 9.84648V9.87528C25.7296 7.22239 21.761 3.44111 16.8153 1.25877C14.7122 0.332054 13.0845 -0.0184618 11.4231 0.00074473C10.4868 0.0127488 7.54101 0.164001 4.75847 2.19989C0.038478 5.65706 -0.00233757 11.4598 6.32439e-05 11.9112C0.00486487 12.3241 0.156116 18.2781 4.98175 21.5624C7.69947 23.4111 10.5084 23.4687 11.728 23.4759C16.8394 23.5119 20.6206 20.5877 23.7009 18.2037C24.181 17.8316 24.5556 17.5243 24.8989 17.2218C26.301 15.9854 27.4053 14.8978 28.1304 14.1535V14.1247C30.5336 16.7776 34.5021 20.5589 39.4478 22.7412C41.5509 23.6679 43.1787 24.0185 44.84 23.9993C45.7763 23.9873 48.7221 23.836 51.5047 21.8001C56.2247 18.3429 56.2655 12.5402 56.2631 12.0888ZM8.86627 20.7798C5.33227 19.8194 2.45849 15.9085 2.1824 11.9472C2.16799 11.7431 1.9111 6.86706 5.65877 3.80123C8.16522 1.75333 11.0534 1.67651 12.1578 1.6621C18.8368 1.57567 24.1979 7.24159 27.3405 10.5979C20.4118 16.8304 14.1865 22.2275 8.86627 20.7822V20.7798ZM50.602 20.2012C48.0955 22.2491 45.2073 22.3259 44.103 22.3403C37.4239 22.4267 32.0629 16.7608 28.9202 13.4045C35.849 7.17197 42.0743 1.77495 47.3945 3.22023C50.9285 4.18056 53.8023 8.09148 54.0783 12.0528C54.0928 12.2569 54.3496 17.1329 50.602 20.1988V20.2012Z" fill="#1A1717"/>
</svg>
