<?xml version="1.0" encoding="UTF-8"?>
<svg xmlns="http://www.w3.org/2000/svg" viewBox="0 0 1206.13 1206.13">
  <defs>
    <style>
      .cls-1 {
        fill: #231f20;
      }
    </style>
  </defs>
  <g id="Layer_5" data-name="Layer 5">
    <path class="cls-1" d="M723,423.26c-.02-1.72-.65-26.52-20.75-40.2-11.32-7.7-23.02-7.94-28.1-7.97-21.29-.15-37.04,12.03-49.87,21.96-2,1.55-3.56,2.83-4.99,4.09-5.84,5.15-10.44,9.68-13.46,12.78v.12c-10.01-11.05-26.54-26.8-47.14-35.89-8.76-3.86-15.54-5.32-22.46-5.24-3.9,.05-16.17,.68-27.76,9.16-19.66,14.4-19.83,38.57-19.82,40.45,.02,1.72,.65,26.52,20.75,40.2,11.32,7.7,23.02,7.94,28.1,7.97,21.29,.15,37.04-12.03,49.87-21.96,2-1.55,3.56-2.83,4.99-4.09,5.84-5.15,10.44-9.68,13.46-12.78v-.12c10.01,11.05,26.54,26.8,47.14,35.89,8.76,3.86,15.54,5.32,22.46,5.24,3.9-.05,16.17-.68,27.76-9.16,19.66-14.4,19.83-38.57,19.82-40.45Zm-197.42,36.2c-14.72-4-26.69-20.29-27.84-36.79-.06-.85-1.13-21.16,14.48-33.93,10.44-8.53,22.47-8.85,27.07-8.91,27.82-.36,50.15,23.24,63.24,37.22-28.86,25.96-54.79,48.44-76.95,42.42Zm173.84-2.41c-10.44,8.53-22.47,8.85-27.07,8.91-27.82,.36-50.15-23.24-63.24-37.22,28.86-25.96,54.79-48.44,76.95-42.42,14.72,4,26.69,20.29,27.84,36.79,.06,.85,1.13,21.16-14.48,33.93Z"/>
  </g>
  <g id="Layer_3" data-name="Layer 3">
    <g>
      <path class="cls-1" d="M325.87,598.11c-6.47,0-12.32-1.32-17.55-3.95-5.23-2.63-9.38-6.55-12.45-11.75-3.07-5.2-4.6-11.57-4.6-19.1,0-5.73,.93-10.77,2.8-15.1,1.87-4.33,4.42-7.97,7.65-10.9,3.23-2.93,6.97-5.13,11.2-6.6,4.23-1.47,8.72-2.2,13.45-2.2,3.8,0,7.3,.43,10.5,1.3,3.2,.87,6.2,2.07,9,3.6l.4,12.3h-1l-5-8c-.67-1.27-1.4-2.42-2.2-3.45-.8-1.03-1.8-1.82-3-2.35-1-.46-1.98-.82-2.95-1.05-.97-.23-2.18-.35-3.65-.35-3.87,0-7.38,1.03-10.55,3.1-3.17,2.07-5.7,5.48-7.6,10.25-1.9,4.77-2.85,11.28-2.85,19.55s.9,14.68,2.7,19.45c1.8,4.77,4.25,8.17,7.35,10.2,3.1,2.03,6.58,3.05,10.45,3.05,2.13,0,3.83-.15,5.1-.45,1.27-.3,2.53-.75,3.8-1.35,1.27-.53,2.23-1.32,2.9-2.35,.67-1.03,1.27-2.15,1.8-3.35l4.4-9.8h1l-.3,14.3c-2.8,1.47-5.93,2.67-9.4,3.6-3.47,.93-7.27,1.4-11.4,1.4Z"/>
      <path class="cls-1" d="M392.47,598.11c-4.07,0-7.98-.73-11.75-2.2-3.77-1.46-7.13-3.65-10.1-6.55-2.97-2.9-5.32-6.52-7.05-10.85-1.73-4.33-2.6-9.4-2.6-15.2s.87-10.77,2.6-15.1c1.73-4.33,4.1-7.95,7.1-10.85,3-2.9,6.38-5.1,10.15-6.6,3.77-1.5,7.65-2.25,11.65-2.25s7.98,.72,11.75,2.15c3.77,1.43,7.13,3.6,10.1,6.5,2.96,2.9,5.32,6.54,7.05,10.9,1.73,4.37,2.6,9.45,2.6,15.25s-.87,10.68-2.6,15.05c-1.73,4.37-4.09,8-7.05,10.9-2.97,2.9-6.33,5.1-10.1,6.6-3.77,1.5-7.69,2.25-11.75,2.25Zm0-2.1c3.67,0,6.63-.98,8.9-2.95,2.27-1.97,3.91-5.33,4.95-10.1,1.03-4.77,1.55-11.32,1.55-19.65s-.52-14.98-1.55-19.75c-1.04-4.77-2.68-8.13-4.95-10.1-2.27-1.97-5.24-2.95-8.9-2.95s-6.53,.98-8.8,2.95c-2.27,1.97-3.92,5.33-4.95,10.1-1.03,4.77-1.55,11.35-1.55,19.75s.52,14.88,1.55,19.65c1.03,4.77,2.68,8.13,4.95,10.1,2.27,1.97,5.2,2.95,8.8,2.95Z"/>
      <path class="cls-1" d="M437.47,596.31v-1l3.3-1c1.2-.33,2.07-.98,2.6-1.95,.53-.97,.8-2.12,.8-3.45v-48.1c-.73-1.6-1.32-2.8-1.75-3.6-.43-.8-.92-1.48-1.45-2.05-.53-.57-1.27-1.28-2.2-2.15l-1.7-1.7v-1h17.7l33.2,45.3v-37.7c0-1.33-.22-2.53-.65-3.6-.43-1.07-1.32-1.77-2.65-2.1l-3.3-.9v-1h14.3v1l-2.7,.9c-1.2,.4-1.93,1.1-2.2,2.1-.27,1-.4,2.17-.4,3.5v58.8h-5.6l-38.2-52.5v44.8c0,1.33,.2,2.47,.6,3.4,.4,.93,1.23,1.6,2.5,2l3,1v1h-15.2Z"/>
      <path class="cls-1" d="M524.87,596.31v-1l4.1-1c2.73-.6,4.1-2.27,4.1-5v-57h-8.5c-2.47,0-4.23,.65-5.3,1.95-1.07,1.3-2.2,3.08-3.4,5.35l-3.6,7h-1l.5-16.3h57.7l.4,16.3h-1l-3.6-7c-1.13-2.27-2.23-4.05-3.3-5.35-1.07-1.3-2.83-1.95-5.3-1.95h-8.5v57c0,2.73,1.37,4.4,4.1,5l4.1,1v1h-31.5Z"/>
      <path class="cls-1" d="M584.17,596.31v-1l2-.8c1.33-.47,2.22-1.1,2.65-1.9s.65-1.87,.65-3.2v-52.2c0-1.33-.2-2.4-.6-3.2-.4-.8-1.3-1.43-2.7-1.9l-2-.8v-1h25.7v1l-2,.8c-1.33,.47-2.22,1.1-2.65,1.9-.43,.8-.65,1.87-.65,3.2v52.2c0,1.33,.22,2.38,.65,3.15,.43,.77,1.32,1.42,2.65,1.95l2,.8v1h-25.7Z"/>
      <path class="cls-1" d="M625.57,596.31v-1l3.3-1c1.2-.33,2.07-.98,2.6-1.95,.53-.97,.8-2.12,.8-3.45v-48.1c-.73-1.6-1.32-2.8-1.75-3.6-.43-.8-.92-1.48-1.45-2.05-.53-.57-1.27-1.28-2.2-2.15l-1.7-1.7v-1h17.7l33.2,45.3v-37.7c0-1.33-.22-2.53-.65-3.6-.43-1.07-1.32-1.77-2.65-2.1l-3.3-.9v-1h14.3v1l-2.7,.9c-1.2,.4-1.93,1.1-2.2,2.1-.27,1-.4,2.17-.4,3.5v58.8h-5.6l-38.2-52.5v44.8c0,1.33,.2,2.47,.6,3.4,.4,.93,1.23,1.6,2.5,2l3,1v1h-15.2Z"/>
      <path class="cls-1" d="M730.27,598.11c-5.07,0-9.55-.9-13.45-2.7-3.9-1.8-6.93-4.65-9.1-8.55-2.17-3.9-3.25-9.05-3.25-15.45v-34.5c0-2.53-1.3-4.2-3.9-5l-2.2-.6v-1h27.7v1l-2.9,.8c-2.47,.6-3.7,2.27-3.7,5v36.9c0,6.2,1.3,10.78,3.9,13.75,2.6,2.97,6.33,4.45,11.2,4.45s9.08-1.57,12.05-4.7c2.97-3.13,4.45-7.57,4.45-13.3v-36.7c0-1.33-.22-2.52-.65-3.55-.43-1.03-1.32-1.72-2.65-2.05l-2.5-.6v-1h14v1l-2.7,.7c-1.27,.27-2.1,.9-2.5,1.9-.4,1-.6,2.17-.6,3.5v36.6c0,4.87-.97,9.12-2.9,12.75-1.93,3.63-4.63,6.43-8.1,8.4-3.47,1.97-7.53,2.95-12.2,2.95Z"/>
      <path class="cls-1" d="M803.77,598.11c-5.07,0-9.55-.9-13.45-2.7-3.9-1.8-6.93-4.65-9.1-8.55-2.17-3.9-3.25-9.05-3.25-15.45v-34.5c0-2.53-1.3-4.2-3.9-5l-2.2-.6v-1h27.7v1l-2.9,.8c-2.47,.6-3.7,2.27-3.7,5v36.9c0,6.2,1.3,10.78,3.9,13.75,2.6,2.97,6.33,4.45,11.2,4.45s9.08-1.57,12.05-4.7c2.97-3.13,4.45-7.57,4.45-13.3v-36.7c0-1.33-.22-2.52-.65-3.55-.43-1.03-1.32-1.72-2.65-2.05l-2.5-.6v-1h14v1l-2.7,.7c-1.27,.27-2.1,.9-2.5,1.9-.4,1-.6,2.17-.6,3.5v36.6c0,4.87-.97,9.12-2.9,12.75-1.93,3.63-4.63,6.43-8.1,8.4-3.47,1.97-7.53,2.95-12.2,2.95Z"/>
      <path class="cls-1" d="M845.47,596.31v-1l2-.7c2.27-.73,3.4-2.63,3.4-5.7v-51.2c0-1.33-.15-2.4-.45-3.2s-1.08-1.47-2.35-2l-2.6-1.2v-1h19.3l18.5,48.4,17.4-48.4h19.7v1l-1.6,.6c-1.27,.47-2.13,1.12-2.6,1.95-.47,.83-.7,1.92-.7,3.25v52.3c0,1.33,.17,2.37,.5,3.1,.33,.73,1.13,1.37,2.4,1.9l2,.9v1h-24.9v-1l2.1-.9c1.27-.53,2.07-1.17,2.4-1.9,.33-.73,.5-1.77,.5-3.1v-22.5l.2-28.6-20.9,58h-5l-21.8-57.3,.3,24.9v25.2c0,1.47,.22,2.65,.65,3.55,.43,.9,1.28,1.55,2.55,1.95l2.2,.7v1h-13.2Z"/>
    </g>
  </g>
</svg>