<svg width="84" height="80" viewBox="0 0 84 80" fill="none" xmlns="http://www.w3.org/2000/svg">
<path d="M89.8346 68.3551V19.0692C89.8346 14.1692 85.833 10.5351 80.9738 10.9434H80.7288C72.1538 11.6784 59.128 16.0476 51.8596 20.6209L51.1655 21.0701C49.9813 21.8051 48.0213 21.8051 46.8371 21.0701L45.8163 20.4576C38.548 15.9251 25.563 11.5967 16.988 10.9026C12.1288 10.4942 8.16797 14.1692 8.16797 19.0284V68.3551C8.16797 72.2751 11.353 75.9501 15.273 76.4401L16.4571 76.6034C25.318 77.7876 38.9971 82.2793 46.8371 86.5668L47.0005 86.6484C48.103 87.2609 49.8588 87.2609 50.9205 86.6484C58.7605 82.3201 72.4805 77.7876 81.3821 76.6034L82.7296 76.4401C86.6496 75.9501 89.8346 72.2751 89.8346 68.3551Z" stroke="#807171" stroke-width="2" stroke-linecap="round" stroke-linejoin="round"/>
<path d="M49.0015 22.4175V83.6675" stroke="#807171" stroke-width="2" stroke-linecap="round" stroke-linejoin="round"/>
<path d="M31.6475 34.6675H22.46" stroke="#807171" stroke-width="2" stroke-linecap="round" stroke-linejoin="round"/>
<path d="M34.71 46.9175H22.46" stroke="#807171" stroke-width="2" stroke-linecap="round" stroke-linejoin="round"/>
</svg>
