<svg width="46" height="47" viewBox="0 0 46 47" fill="none" xmlns="http://www.w3.org/2000/svg">
<rect y="0.5" width="46" height="46" rx="4" fill="#C87F94"/>
<path d="M26.0508 32.3141L27.9508 34.2141L31.7508 30.4141" stroke="#FDF9F5" stroke-width="1.5" stroke-linecap="round" stroke-linejoin="round"/>
<path d="M23.1993 22.0875C23.0743 22.075 22.9243 22.075 22.7868 22.0875C19.8118 21.9875 17.4493 19.55 17.4493 16.55C17.4368 13.4875 19.9243 11 22.9868 11C26.0493 11 28.5368 13.4875 28.5368 16.55C28.5368 19.55 26.1618 21.9875 23.1993 22.0875Z" stroke="#FDF9F5" stroke-width="1.5" stroke-linecap="round" stroke-linejoin="round"/>
<path d="M22.9883 35.7641C20.7133 35.7641 18.4508 35.1891 16.7258 34.0391C13.7008 32.0141 13.7008 28.7141 16.7258 26.7016C20.1633 24.4016 25.8008 24.4016 29.2383 26.7016" stroke="#FDF9F5" stroke-width="1.5" stroke-linecap="round" stroke-linejoin="round"/>
</svg>
