<svg width="46" height="47" viewBox="0 0 46 47" fill="none" xmlns="http://www.w3.org/2000/svg">
<rect y="0.5" width="46" height="46" rx="4" fill="#E9ADA3"/>
<mask id="path-2-inside-1_1684_24308" fill="white">
<path d="M18.9112 28.1925C19.1922 28.3921 19.5282 28.4997 19.8729 28.5006C20.2176 28.5015 20.5541 28.3956 20.8362 28.1975C21.0887 28.0175 21.2874 27.7713 21.4087 27.4857L22.1812 25.13C22.3701 24.5623 22.6888 24.0464 23.1119 23.6232C23.535 23.2001 24.0509 22.8815 24.6187 22.6925L26.888 21.9532C27.2137 21.8383 27.4957 21.6253 27.6952 21.3434C27.8947 21.0615 28.0018 20.7247 28.0018 20.3794C28.0018 20.0341 27.8947 19.6973 27.6952 19.4154C27.4957 19.1336 27.2137 18.9205 26.888 18.8057L24.5755 18.06C24.0096 17.8706 23.4953 17.5526 23.0729 17.131C22.6506 16.7094 22.3316 16.1956 22.1412 15.63L21.4043 13.3619C21.2897 13.0361 21.0765 12.7541 20.7943 12.555C20.511 12.359 20.1747 12.2539 19.8302 12.2539C19.4857 12.2539 19.1494 12.359 18.8662 12.555C18.579 12.7584 18.3632 13.0471 18.2493 13.38L17.5037 15.6719C17.3142 16.2231 17.0024 16.7242 16.5914 17.1375C16.1805 17.5508 15.6812 17.8656 15.1312 18.0582L12.8643 18.7944C12.5369 18.9097 12.2536 19.1243 12.0539 19.4082C11.8542 19.6921 11.748 20.0312 11.75 20.3783C11.7521 20.7254 11.8623 21.0632 12.0654 21.3447C12.2685 21.6262 12.5543 21.8374 12.883 21.9488L15.1249 22.6769C15.6929 22.8676 16.2088 23.1876 16.632 23.6117C17.0552 24.0357 17.3742 24.5523 17.5637 25.1207L18.3012 27.385C18.4155 27.7107 18.6287 27.9932 18.9105 28.1925M19.9755 26.8663L19.9368 26.9169C19.918 26.9286 19.8962 26.9345 19.874 26.9338C19.8519 26.9331 19.8305 26.926 19.8124 26.9132C19.7997 26.9044 19.7887 26.8934 19.7799 26.8807L19.0487 24.6307C18.7856 23.8294 18.3377 23.1012 17.7412 22.505C17.1434 21.9082 16.4147 21.4588 15.613 21.1925L13.3824 20.4713C13.3619 20.4628 13.344 20.449 13.3305 20.4313C13.3175 20.4131 13.3109 20.3911 13.3118 20.3688C13.3122 20.3459 13.3189 20.325 13.3318 20.3063C13.3406 20.2938 13.3516 20.283 13.3643 20.2744L15.6268 19.54C16.4154 19.2669 17.1305 18.8159 17.7168 18.2219C18.2871 17.6419 18.72 16.9414 18.9837 16.1719L19.7262 13.8838C19.7335 13.8627 19.7473 13.8445 19.7656 13.8317C19.7839 13.8189 19.8057 13.8122 19.828 13.8125C19.8472 13.8125 19.866 13.8174 19.8828 13.8267C19.8995 13.836 19.9136 13.8494 19.9237 13.8657L20.6562 16.1157C20.9229 16.9125 21.3706 17.6366 21.9643 18.2313C22.5612 18.8278 23.2887 19.2771 24.0893 19.5438L26.3393 20.2738L26.3805 20.2857C26.3976 20.2948 26.4119 20.3084 26.4218 20.325C26.4317 20.3417 26.4369 20.3607 26.4368 20.38C26.4368 20.403 26.4305 20.4238 26.418 20.4425C26.4091 20.4541 26.3988 20.4646 26.3874 20.4738L24.1312 21.2057C23.3315 21.4708 22.6049 21.9191 22.0093 22.5148C21.4137 23.1105 20.9655 23.8372 20.7005 24.6369L19.9755 26.8663ZM28.5468 33.9C28.7522 34.0456 28.9976 34.124 29.2493 34.1244L29.2524 34.1263C29.5072 34.1258 29.7553 34.0454 29.9621 33.8965C30.1688 33.7476 30.3237 33.5377 30.4049 33.2963L30.7605 32.2025C30.8335 31.9843 30.956 31.7859 31.1186 31.623C31.2811 31.4601 31.4793 31.3371 31.6974 31.2638L32.8162 30.9C32.9934 30.8374 33.1536 30.7345 33.2844 30.5994C33.4151 30.4644 33.5128 30.3009 33.5697 30.1218C33.6266 29.9426 33.6412 29.7528 33.6124 29.567C33.5836 29.3813 33.5122 29.2048 33.4037 29.0513C33.2493 28.8351 33.0289 28.675 32.7755 28.595L31.6774 28.2394C31.4593 28.1663 31.2611 28.0436 31.0984 27.8809C30.9358 27.7182 30.8131 27.52 30.7399 27.3019L30.3762 26.1838C30.2923 25.9446 30.1357 25.7377 29.9283 25.592C29.721 25.4462 29.4732 25.369 29.2198 25.3711C28.9663 25.3731 28.7199 25.4544 28.5149 25.6035C28.31 25.7526 28.1568 25.9621 28.0768 26.2025L27.7193 27.3007C27.6483 27.5156 27.5292 27.7114 27.3711 27.8734C27.2129 28.0353 27.02 28.159 26.8068 28.235L25.688 28.5988C25.449 28.6826 25.2422 28.8391 25.0965 29.0463C24.9508 29.2535 24.8735 29.501 24.8755 29.7543C24.8775 30.0076 24.9587 30.2539 25.1076 30.4588C25.2566 30.6637 25.4659 30.8169 25.7062 30.8969L26.8012 31.2532C27.0199 31.3262 27.2186 31.4494 27.3814 31.6128C27.5441 31.7762 27.6665 31.9754 27.7387 32.1944L28.1024 33.3119C28.1862 33.5494 28.3418 33.755 28.5468 33.9ZM27.288 29.7738L27.2143 29.7494L27.3018 29.7188C27.7463 29.5652 28.1492 29.3109 28.4792 28.9758C28.8091 28.6406 29.0571 28.2338 29.2037 27.7869L29.2287 27.7113L29.2537 27.7913C29.4031 28.2414 29.6557 28.6504 29.9912 28.9856C30.3267 29.3208 30.7359 29.5729 31.1862 29.7219L31.2837 29.7532L31.208 29.7782C30.7573 29.9275 30.3477 30.1801 30.012 30.516C29.6763 30.8519 29.4239 31.2617 29.2749 31.7125L29.2499 31.7882L29.2249 31.7113C29.0759 31.2594 28.823 30.8487 28.4865 30.5122C28.15 30.1757 27.7393 29.9228 27.2874 29.7738"/>
</mask>
<path d="M18.9112 28.1925C19.1922 28.3921 19.5282 28.4997 19.8729 28.5006C20.2176 28.5015 20.5541 28.3956 20.8362 28.1975C21.0887 28.0175 21.2874 27.7713 21.4087 27.4857L22.1812 25.13C22.3701 24.5623 22.6888 24.0464 23.1119 23.6232C23.535 23.2001 24.0509 22.8815 24.6187 22.6925L26.888 21.9532C27.2137 21.8383 27.4957 21.6253 27.6952 21.3434C27.8947 21.0615 28.0018 20.7247 28.0018 20.3794C28.0018 20.0341 27.8947 19.6973 27.6952 19.4154C27.4957 19.1336 27.2137 18.9205 26.888 18.8057L24.5755 18.06C24.0096 17.8706 23.4953 17.5526 23.0729 17.131C22.6506 16.7094 22.3316 16.1956 22.1412 15.63L21.4043 13.3619C21.2897 13.0361 21.0765 12.7541 20.7943 12.555C20.511 12.359 20.1747 12.2539 19.8302 12.2539C19.4857 12.2539 19.1494 12.359 18.8662 12.555C18.579 12.7584 18.3632 13.0471 18.2493 13.38L17.5037 15.6719C17.3142 16.2231 17.0024 16.7242 16.5914 17.1375C16.1805 17.5508 15.6812 17.8656 15.1312 18.0582L12.8643 18.7944C12.5369 18.9097 12.2536 19.1243 12.0539 19.4082C11.8542 19.6921 11.748 20.0312 11.75 20.3783C11.7521 20.7254 11.8623 21.0632 12.0654 21.3447C12.2685 21.6262 12.5543 21.8374 12.883 21.9488L15.1249 22.6769C15.6929 22.8676 16.2088 23.1876 16.632 23.6117C17.0552 24.0357 17.3742 24.5523 17.5637 25.1207L18.3012 27.385C18.4155 27.7107 18.6287 27.9932 18.9105 28.1925M19.9755 26.8663L19.9368 26.9169C19.918 26.9286 19.8962 26.9345 19.874 26.9338C19.8519 26.9331 19.8305 26.926 19.8124 26.9132C19.7997 26.9044 19.7887 26.8934 19.7799 26.8807L19.0487 24.6307C18.7856 23.8294 18.3377 23.1012 17.7412 22.505C17.1434 21.9082 16.4147 21.4588 15.613 21.1925L13.3824 20.4713C13.3619 20.4628 13.344 20.449 13.3305 20.4313C13.3175 20.4131 13.3109 20.3911 13.3118 20.3688C13.3122 20.3459 13.3189 20.325 13.3318 20.3063C13.3406 20.2938 13.3516 20.283 13.3643 20.2744L15.6268 19.54C16.4154 19.2669 17.1305 18.8159 17.7168 18.2219C18.2871 17.6419 18.72 16.9414 18.9837 16.1719L19.7262 13.8838C19.7335 13.8627 19.7473 13.8445 19.7656 13.8317C19.7839 13.8189 19.8057 13.8122 19.828 13.8125C19.8472 13.8125 19.866 13.8174 19.8828 13.8267C19.8995 13.836 19.9136 13.8494 19.9237 13.8657L20.6562 16.1157C20.9229 16.9125 21.3706 17.6366 21.9643 18.2313C22.5612 18.8278 23.2887 19.2771 24.0893 19.5438L26.3393 20.2738L26.3805 20.2857C26.3976 20.2948 26.4119 20.3084 26.4218 20.325C26.4317 20.3417 26.4369 20.3607 26.4368 20.38C26.4368 20.403 26.4305 20.4238 26.418 20.4425C26.4091 20.4541 26.3988 20.4646 26.3874 20.4738L24.1312 21.2057C23.3315 21.4708 22.6049 21.9191 22.0093 22.5148C21.4137 23.1105 20.9655 23.8372 20.7005 24.6369L19.9755 26.8663ZM28.5468 33.9C28.7522 34.0456 28.9976 34.124 29.2493 34.1244L29.2524 34.1263C29.5072 34.1258 29.7553 34.0454 29.9621 33.8965C30.1688 33.7476 30.3237 33.5377 30.4049 33.2963L30.7605 32.2025C30.8335 31.9843 30.956 31.7859 31.1186 31.623C31.2811 31.4601 31.4793 31.3371 31.6974 31.2638L32.8162 30.9C32.9934 30.8374 33.1536 30.7345 33.2844 30.5994C33.4151 30.4644 33.5128 30.3009 33.5697 30.1218C33.6266 29.9426 33.6412 29.7528 33.6124 29.567C33.5836 29.3813 33.5122 29.2048 33.4037 29.0513C33.2493 28.8351 33.0289 28.675 32.7755 28.595L31.6774 28.2394C31.4593 28.1663 31.2611 28.0436 31.0984 27.8809C30.9358 27.7182 30.8131 27.52 30.7399 27.3019L30.3762 26.1838C30.2923 25.9446 30.1357 25.7377 29.9283 25.592C29.721 25.4462 29.4732 25.369 29.2198 25.3711C28.9663 25.3731 28.7199 25.4544 28.5149 25.6035C28.31 25.7526 28.1568 25.9621 28.0768 26.2025L27.7193 27.3007C27.6483 27.5156 27.5292 27.7114 27.3711 27.8734C27.2129 28.0353 27.02 28.159 26.8068 28.235L25.688 28.5988C25.449 28.6826 25.2422 28.8391 25.0965 29.0463C24.9508 29.2535 24.8735 29.501 24.8755 29.7543C24.8775 30.0076 24.9587 30.2539 25.1076 30.4588C25.2566 30.6637 25.4659 30.8169 25.7062 30.8969L26.8012 31.2532C27.0199 31.3262 27.2186 31.4494 27.3814 31.6128C27.5441 31.7762 27.6665 31.9754 27.7387 32.1944L28.1024 33.3119C28.1862 33.5494 28.3418 33.755 28.5468 33.9ZM27.288 29.7738L27.2143 29.7494L27.3018 29.7188C27.7463 29.5652 28.1492 29.3109 28.4792 28.9758C28.8091 28.6406 29.0571 28.2338 29.2037 27.7869L29.2287 27.7113L29.2537 27.7913C29.4031 28.2414 29.6557 28.6504 29.9912 28.9856C30.3267 29.3208 30.7359 29.5729 31.1862 29.7219L31.2837 29.7532L31.208 29.7782C30.7573 29.9275 30.3477 30.1801 30.012 30.516C29.6763 30.8519 29.4239 31.2617 29.2749 31.7125L29.2499 31.7882L29.2249 31.7113C29.0759 31.2594 28.823 30.8487 28.4865 30.5122C28.15 30.1757 27.7393 29.9228 27.2874 29.7738" fill="#FDF9F5"/>
<path d="M20.8362 28.1975L20.9511 28.3612L20.9523 28.3604L20.8362 28.1975ZM21.4087 27.4857L21.5928 27.5638L21.5961 27.556L21.5987 27.548L21.4087 27.4857ZM22.1812 25.13L21.9914 25.0669L21.9911 25.0677L22.1812 25.13ZM24.6187 22.6925L24.5567 22.5024L24.5555 22.5028L24.6187 22.6925ZM26.888 21.9532L26.95 22.1434L26.9546 22.1418L26.888 21.9532ZM26.888 18.8057L26.9546 18.617L26.9494 18.6153L26.888 18.8057ZM24.5755 18.06L24.5121 18.2497L24.5142 18.2504L24.5755 18.06ZM22.1412 15.63L21.9509 15.6918L21.9516 15.6939L22.1412 15.63ZM21.4043 13.3619L21.5946 13.3001L21.593 13.2956L21.4043 13.3619ZM20.7943 12.555L20.9096 12.3916L20.9081 12.3906L20.7943 12.555ZM19.8302 12.2539V12.4539V12.2539ZM18.8662 12.555L18.7523 12.3906L18.7506 12.3918L18.8662 12.555ZM18.2493 13.38L18.06 13.3153L18.0591 13.3182L18.2493 13.38ZM17.5037 15.6719L17.6928 15.7369L17.6939 15.7338L17.5037 15.6719ZM15.1312 18.0582L15.193 18.2484L15.1973 18.2469L15.1312 18.0582ZM12.8643 18.7944L12.8025 18.6041L12.7978 18.6058L12.8643 18.7944ZM12.883 21.9488L12.8188 22.1382L12.8213 22.139L12.883 21.9488ZM15.1249 22.6769L15.1886 22.4873L15.1867 22.4867L15.1249 22.6769ZM17.5637 25.1207L17.7538 25.0587L17.7534 25.0574L17.5637 25.1207ZM18.3012 27.385L18.111 27.447L18.1125 27.4513L18.3012 27.385ZM19.9755 26.8663L20.1344 26.9879L20.1552 26.9607L20.1657 26.9281L19.9755 26.8663ZM19.9368 26.9169L20.0423 27.0868L20.0734 27.0675L20.0956 27.0385L19.9368 26.9169ZM19.8124 26.9132L19.928 26.7499L19.9254 26.7482L19.8124 26.9132ZM19.7799 26.8807L19.5897 26.9425L19.5986 26.9699L19.6149 26.9937L19.7799 26.8807ZM19.0487 24.6307L19.2389 24.5689L19.2387 24.5683L19.0487 24.6307ZM17.7412 22.505L17.8825 22.3636L17.8825 22.3635L17.7412 22.505ZM15.613 21.1925L15.6761 21.0027L15.6746 21.0022L15.613 21.1925ZM13.3824 20.4713L13.3061 20.6561L13.3134 20.6592L13.3209 20.6616L13.3824 20.4713ZM13.3305 20.4313L13.1682 20.5482L13.1712 20.5521L13.3305 20.4313ZM13.3118 20.3688L13.5117 20.377L13.5118 20.3724L13.3118 20.3688ZM13.3318 20.3063L13.1681 20.1914L13.1671 20.1928L13.3318 20.3063ZM13.3643 20.2744L13.3026 20.0842L13.2759 20.0928L13.2526 20.1085L13.3643 20.2744ZM15.6268 19.54L15.6886 19.7303L15.6923 19.729L15.6268 19.54ZM17.7168 18.2219L17.8591 18.3624L17.8594 18.3621L17.7168 18.2219ZM18.9837 16.1719L19.1729 16.2368L19.1739 16.2336L18.9837 16.1719ZM19.7262 13.8838L19.5373 13.8179L19.5359 13.8221L19.7262 13.8838ZM19.828 13.8125L19.8251 14.0125L19.8282 14.0125L19.828 13.8125ZM19.9237 13.8657L20.1138 13.8038L20.1063 13.7807L20.0936 13.7601L19.9237 13.8657ZM20.6562 16.1157L20.466 16.1776L20.4665 16.1792L20.6562 16.1157ZM21.9643 18.2313L21.8228 18.3726L21.8229 18.3728L21.9643 18.2313ZM24.0893 19.5438L24.0261 19.7335L24.0276 19.734L24.0893 19.5438ZM26.3393 20.2738L26.2775 20.4641L26.284 20.466L26.3393 20.2738ZM26.3805 20.2857L26.4747 20.1092L26.4561 20.0993L26.4359 20.0935L26.3805 20.2857ZM26.4368 20.38L26.2368 20.3789V20.38H26.4368ZM26.418 20.4425L26.5766 20.5652L26.5845 20.5535L26.418 20.4425ZM26.3874 20.4738L26.4491 20.664L26.4842 20.6526L26.513 20.6295L26.3874 20.4738ZM24.1312 21.2057L24.0695 21.0154L24.0682 21.0158L24.1312 21.2057ZM20.7005 24.6369L20.5107 24.574L20.5104 24.5751L20.7005 24.6369ZM28.5468 33.9L28.6624 33.7369L28.6623 33.7368L28.5468 33.9ZM29.2493 34.1244L29.3523 33.953L29.3049 33.9245L29.2497 33.9244L29.2493 34.1244ZM29.2524 34.1263L29.1494 34.2977L29.1972 34.3264L29.2528 34.3263L29.2524 34.1263ZM30.4049 33.2963L30.5945 33.3601L30.5951 33.3581L30.4049 33.2963ZM30.7605 32.2025L30.5708 32.1392L30.5704 32.1407L30.7605 32.2025ZM31.6974 31.2638L31.6356 31.0736L31.6337 31.0742L31.6974 31.2638ZM32.8162 30.9L32.878 31.0903L32.8829 31.0886L32.8162 30.9ZM33.4037 29.0513L33.567 28.9358L33.5664 28.9351L33.4037 29.0513ZM32.7755 28.595L32.7139 28.7853L32.7153 28.7858L32.7755 28.595ZM31.6774 28.2394L31.6138 28.4291L31.6158 28.4297L31.6774 28.2394ZM30.7399 27.3019L30.5497 27.3638L30.5503 27.3655L30.7399 27.3019ZM30.3762 26.1838L30.5664 26.1219L30.5649 26.1176L30.3762 26.1838ZM28.0768 26.2025L27.887 26.1394L27.8866 26.1406L28.0768 26.2025ZM27.7193 27.3007L27.9092 27.3634L27.9095 27.3626L27.7193 27.3007ZM26.8068 28.235L26.8687 28.4253L26.874 28.4234L26.8068 28.235ZM25.688 28.5988L25.6262 28.4085L25.6219 28.4101L25.688 28.5988ZM25.7062 30.8969L25.643 31.0867L25.6443 31.0871L25.7062 30.8969ZM26.8012 31.2532L26.8645 31.0635L26.863 31.063L26.8012 31.2532ZM27.7387 32.1944L27.9289 32.1325L27.9286 32.1318L27.7387 32.1944ZM28.1024 33.3119L27.9122 33.3738L27.9138 33.3784L28.1024 33.3119ZM27.2143 29.7494L27.1482 29.5606L26.5934 29.7548L27.1515 29.9393L27.2143 29.7494ZM27.3018 29.7188L27.2365 29.5298L27.2357 29.53L27.3018 29.7188ZM29.2037 27.7869L29.0138 27.7241L29.0136 27.7246L29.2037 27.7869ZM29.2287 27.7113L29.4196 27.6516L29.234 27.0579L29.0388 27.6485L29.2287 27.7113ZM29.2537 27.7913L29.0627 27.851L29.0639 27.8543L29.2537 27.7913ZM31.1862 29.7219L31.1233 29.9118L31.1251 29.9124L31.1862 29.7219ZM31.2837 29.7532L31.3464 29.9431L31.9298 29.7502L31.3447 29.5627L31.2837 29.7532ZM31.208 29.7782L31.1453 29.5883L31.1452 29.5883L31.208 29.7782ZM29.2749 31.7125L29.4648 31.7753L29.4648 31.7753L29.2749 31.7125ZM29.2499 31.7882L29.0597 31.85L29.2484 32.4301L29.4398 31.8509L29.2499 31.7882ZM29.2249 31.7113L29.4151 31.6494L29.4149 31.6487L29.2249 31.7113ZM18.9112 28.1925L18.7954 28.3556C19.1101 28.5791 19.4864 28.6996 19.8724 28.7006L19.8729 28.5006L19.8734 28.3006C19.57 28.2998 19.2743 28.2051 19.027 28.0295L18.9112 28.1925ZM19.8729 28.5006L19.8724 28.7006C20.2584 28.7016 20.6352 28.583 20.9511 28.3612L20.8362 28.1975L20.7212 28.0339C20.473 28.2082 20.1768 28.3014 19.8734 28.3006L19.8729 28.5006ZM20.8362 28.1975L20.9523 28.3604C21.2345 28.1592 21.457 27.8837 21.5928 27.5638L21.4087 27.4857L21.2246 27.4075C21.1179 27.6588 20.9428 27.8759 20.7201 28.0347L20.8362 28.1975ZM21.4087 27.4857L21.5987 27.548L22.3712 25.1924L22.1812 25.13L21.9911 25.0677L21.2186 27.4233L21.4087 27.4857ZM22.1812 25.13L22.3709 25.1932C22.5501 24.6549 22.8522 24.1658 23.2533 23.7647L23.1119 23.6232L22.9705 23.4818C22.5254 23.9269 22.1901 24.4696 21.9914 25.0669L22.1812 25.13ZM23.1119 23.6232L23.2533 23.7647C23.6544 23.3635 24.1435 23.0614 24.6818 22.8823L24.6187 22.6925L24.5555 22.5028C23.9583 22.7015 23.4156 23.0367 22.9705 23.4818L23.1119 23.6232ZM24.6187 22.6925L24.6806 22.8827L26.95 22.1433L26.888 21.9532L26.8261 21.763L24.5567 22.5024L24.6187 22.6925ZM26.888 21.9532L26.9546 22.1418C27.3193 22.0132 27.6351 21.7746 27.8584 21.4589L27.6952 21.3434L27.5319 21.2279C27.3564 21.476 27.1082 21.6635 26.8215 21.7646L26.888 21.9532ZM27.6952 21.3434L27.8584 21.4589C28.0818 21.1433 28.2018 20.7661 28.2018 20.3794H28.0018H27.8018C27.8018 20.6833 27.7075 20.9798 27.5319 21.2279L27.6952 21.3434ZM28.0018 20.3794H28.2018C28.2018 19.9927 28.0818 19.6155 27.8584 19.2999L27.6952 19.4154L27.5319 19.531C27.7075 19.779 27.8018 20.0755 27.8018 20.3794H28.0018ZM27.6952 19.4154L27.8584 19.2999C27.6351 18.9842 27.3193 18.7457 26.9546 18.6171L26.888 18.8057L26.8215 18.9943C27.1082 19.0954 27.3564 19.2829 27.5319 19.531L27.6952 19.4154ZM26.888 18.8057L26.9494 18.6153L24.6369 17.8697L24.5755 18.06L24.5142 18.2504L26.8267 18.996L26.888 18.8057ZM24.5755 18.06L24.639 17.8704C24.1024 17.6908 23.6147 17.3892 23.2142 16.9894L23.0729 17.131L22.9316 17.2725C23.3759 17.716 23.9168 18.0504 24.5121 18.2497L24.5755 18.06ZM23.0729 17.131L23.2142 16.9894C22.8137 16.5897 22.5113 16.1025 22.3307 15.5662L22.1412 15.63L21.9516 15.6939C22.152 16.2887 22.4874 16.8291 22.9316 17.2725L23.0729 17.131ZM22.1412 15.63L22.3314 15.5682L21.5945 13.3001L21.4043 13.3619L21.2141 13.4237L21.951 15.6918L22.1412 15.63ZM21.4043 13.3619L21.593 13.2956C21.4646 12.9306 21.2257 12.6146 20.9096 12.3916L20.7943 12.555L20.679 12.7185C20.9273 12.8936 21.1148 13.1417 21.2156 13.4283L21.4043 13.3619ZM20.7943 12.555L20.9081 12.3906C20.5914 12.1714 20.2154 12.0539 19.8302 12.0539V12.2539V12.4539C20.1341 12.4539 20.4307 12.5466 20.6805 12.7195L20.7943 12.555ZM19.8302 12.2539V12.0539C19.4451 12.0539 19.069 12.1714 18.7523 12.3906L18.8662 12.555L18.98 12.7195C19.2298 12.5466 19.5264 12.4539 19.8302 12.4539V12.2539ZM18.8662 12.555L18.7506 12.3918C18.4291 12.6195 18.1875 12.9426 18.0601 13.3153L18.2493 13.38L18.4385 13.4448C18.5388 13.1515 18.7289 12.8973 18.9818 12.7183L18.8662 12.555ZM18.2493 13.38L18.0591 13.3182L17.3135 15.61L17.5037 15.6719L17.6939 15.7338L18.4395 13.4419L18.2493 13.38ZM17.5037 15.6719L17.3145 15.6069C17.1349 16.1295 16.8392 16.6046 16.4496 16.9965L16.5914 17.1375L16.7333 17.2785C17.1655 16.8437 17.4936 16.3167 17.6928 15.7369L17.5037 15.6719ZM16.5914 17.1375L16.4496 16.9965C16.06 17.3883 15.5866 17.6868 15.0651 17.8694L15.1312 18.0582L15.1973 18.2469C15.7759 18.0443 16.301 17.7132 16.7333 17.2785L16.5914 17.1375ZM15.1312 18.0582L15.0694 17.8679L12.8025 18.6042L12.8643 18.7944L12.9261 18.9846L15.193 18.2484L15.1312 18.0582ZM12.8643 18.7944L12.7978 18.6058C12.4312 18.7349 12.114 18.9752 11.8903 19.2931L12.0539 19.4082L12.2175 19.5233C12.3933 19.2734 12.6426 19.0846 12.9308 18.9831L12.8643 18.7944ZM12.0539 19.4082L11.8903 19.2931C11.6667 19.611 11.5477 19.9908 11.55 20.3795L11.75 20.3783L11.95 20.3771C11.9482 20.0716 12.0417 19.7731 12.2175 19.5233L12.0539 19.4082ZM11.75 20.3783L11.55 20.3795C11.5523 20.7682 11.6758 21.1465 11.9032 21.4617L12.0654 21.3447L12.2276 21.2277C12.0489 20.9799 11.9518 20.6826 11.95 20.3771L11.75 20.3783ZM12.0654 21.3447L11.9032 21.4617C12.1306 21.777 12.4507 22.0134 12.8188 22.1382L12.883 21.9488L12.9473 21.7594C12.6579 21.6613 12.4064 21.4754 12.2276 21.2277L12.0654 21.3447ZM12.883 21.9488L12.8213 22.139L15.0631 22.8671L15.1249 22.6769L15.1867 22.4867L12.9448 21.7586L12.883 21.9488ZM15.1249 22.6769L15.0613 22.8665C15.5999 23.0473 16.0891 23.3508 16.4904 23.7529L16.632 23.6117L16.7736 23.4704C16.3285 23.0244 15.7859 22.6879 15.1886 22.4873L15.1249 22.6769ZM16.632 23.6117L16.4904 23.7529C16.8918 24.1551 17.1942 24.645 17.3739 25.1839L17.5637 25.1207L17.7534 25.0574C17.5541 24.4597 17.2187 23.9164 16.7736 23.4704L16.632 23.6117ZM17.5637 25.1207L17.3735 25.1826L18.111 27.447L18.3012 27.385L18.4913 27.3231L17.7538 25.0587L17.5637 25.1207ZM18.3012 27.385L18.1125 27.4513C18.2406 27.8161 18.4793 28.1325 18.7951 28.3558L18.9105 28.1925L19.026 28.0293C18.7781 27.8539 18.5905 27.6053 18.4899 27.3188L18.3012 27.385ZM19.9755 26.8663L19.8167 26.7447L19.778 26.7954L19.9368 26.9169L20.0956 27.0385L20.1344 26.9879L19.9755 26.8663ZM19.9368 26.9169L19.8313 26.747C19.8459 26.7379 19.8629 26.7334 19.8801 26.7339L19.874 26.9338L19.868 27.1337C19.9295 27.1356 19.9901 27.1193 20.0423 27.0868L19.9368 26.9169ZM19.874 26.9338L19.8801 26.7339C19.8973 26.7344 19.9139 26.74 19.928 26.7499L19.8124 26.9132L19.6968 27.0764C19.747 27.1119 19.8066 27.1319 19.868 27.1337L19.874 26.9338ZM19.8124 26.9132L19.9254 26.7482C19.9331 26.7534 19.9397 26.76 19.9449 26.7677L19.7799 26.8807L19.6149 26.9937C19.6376 27.0268 19.6663 27.0555 19.6994 27.0782L19.8124 26.9132ZM19.7799 26.8807L19.9701 26.8188L19.2389 24.5689L19.0487 24.6307L18.8585 24.6925L19.5897 26.9425L19.7799 26.8807ZM19.0487 24.6307L19.2387 24.5683C18.9659 23.7372 18.5013 22.9819 17.8825 22.3636L17.7412 22.505L17.5998 22.6465C18.1742 23.2205 18.6054 23.9216 18.8586 24.693L19.0487 24.6307ZM17.7412 22.505L17.8825 22.3635C17.2627 21.7447 16.5073 21.2788 15.6761 21.0027L15.613 21.1925L15.55 21.3823C16.3222 21.6388 17.0241 22.0717 17.5999 22.6466L17.7412 22.505ZM15.613 21.1925L15.6746 21.0022L13.444 20.281L13.3824 20.4713L13.3209 20.6616L15.5515 21.3828L15.613 21.1925ZM13.3824 20.4713L13.4588 20.2864C13.4711 20.2915 13.4819 20.2998 13.4899 20.3104L13.3305 20.4313L13.1712 20.5521C13.2061 20.5982 13.2527 20.6341 13.3061 20.6561L13.3824 20.4713ZM13.3305 20.4313L13.4929 20.3145C13.5059 20.3326 13.5125 20.3546 13.5116 20.377L13.3118 20.3688L13.112 20.3606C13.1092 20.4277 13.129 20.4937 13.1682 20.5481L13.3305 20.4313ZM13.3118 20.3688L13.5118 20.3724C13.5116 20.3795 13.5105 20.3879 13.5076 20.3969C13.5047 20.4059 13.5007 20.4136 13.4965 20.4198L13.3318 20.3063L13.1671 20.1928C13.1317 20.2442 13.113 20.3032 13.1118 20.3652L13.3118 20.3688ZM13.3318 20.3063L13.4955 20.4212C13.4902 20.4287 13.4836 20.4352 13.476 20.4403L13.3643 20.2744L13.2526 20.1085C13.2196 20.1307 13.191 20.1588 13.1681 20.1914L13.3318 20.3063ZM13.3643 20.2744L13.426 20.4646L15.6885 19.7303L15.6268 19.54L15.5651 19.3498L13.3026 20.0842L13.3643 20.2744ZM15.6268 19.54L15.6923 19.729C16.5099 19.4458 17.2513 18.9782 17.8591 18.3624L17.7168 18.2219L17.5745 18.0814C17.0097 18.6535 16.3209 19.0879 15.5613 19.3511L15.6268 19.54ZM17.7168 18.2219L17.8594 18.3621C18.4507 17.7608 18.8995 17.0345 19.1729 16.2367L18.9837 16.1719L18.7945 16.1071C18.5405 16.8483 18.1235 17.523 17.5742 18.0817L17.7168 18.2219ZM18.9837 16.1719L19.1739 16.2336L19.9164 13.9455L19.7262 13.8838L19.5359 13.8221L18.7934 16.1102L18.9837 16.1719ZM19.7262 13.8838L19.915 13.9497C19.9085 13.9682 19.8964 13.9843 19.8802 13.9956L19.7656 13.8317L19.651 13.6678C19.5983 13.7047 19.5585 13.7572 19.5373 13.8179L19.7262 13.8838ZM19.7656 13.8317L19.8802 13.9956C19.8641 14.0069 19.8448 14.0128 19.8251 14.0125L19.828 13.8125L19.831 13.6126C19.7667 13.6116 19.7037 13.631 19.651 13.6678L19.7656 13.8317ZM19.828 13.8125L19.8282 14.0125C19.8133 14.0126 19.7986 14.0088 19.7856 14.0015L19.8828 13.8267L19.9799 13.6519C19.9334 13.626 19.8811 13.6125 19.8279 13.6125L19.828 13.8125ZM19.8828 13.8267L19.7856 14.0015C19.7726 13.9943 19.7617 13.9839 19.7538 13.9712L19.9237 13.8657L20.0936 13.7601C20.0655 13.7149 20.0264 13.6777 19.9799 13.6519L19.8828 13.8267ZM19.9237 13.8657L19.7335 13.9276L20.466 16.1776L20.6562 16.1157L20.8463 16.0538L20.1138 13.8038L19.9237 13.8657ZM20.6562 16.1157L20.4665 16.1792C20.743 17.0053 21.2073 17.7561 21.8228 18.3726L21.9643 18.2313L22.1058 18.09C21.534 17.5172 21.1027 16.8197 20.8458 16.0522L20.6562 16.1157ZM21.9643 18.2313L21.8229 18.3728C22.4418 18.9912 23.1961 19.457 24.0261 19.7335L24.0893 19.5438L24.1525 19.354C23.3814 19.0972 22.6806 18.6643 22.1057 18.0898L21.9643 18.2313ZM24.0893 19.5438L24.0276 19.734L26.2776 20.464L26.3393 20.2738L26.401 20.0836L24.151 19.3536L24.0893 19.5438ZM26.3393 20.2738L26.284 20.466L26.3252 20.4779L26.3805 20.2857L26.4359 20.0935L26.3946 20.0816L26.3393 20.2738ZM26.3805 20.2857L26.2864 20.4621C26.2714 20.4541 26.2588 20.4421 26.25 20.4274L26.4218 20.325L26.5936 20.2226C26.565 20.1747 26.5239 20.1355 26.4747 20.1092L26.3805 20.2857ZM26.4218 20.325L26.25 20.4274C26.2413 20.4127 26.2367 20.396 26.2368 20.3789L26.4368 20.38L26.6368 20.3812C26.6371 20.3254 26.6222 20.2706 26.5936 20.2226L26.4218 20.325ZM26.4368 20.38H26.2368C26.2368 20.3731 26.2378 20.3646 26.2405 20.3554C26.2433 20.3462 26.2473 20.3381 26.2516 20.3316L26.418 20.4425L26.5845 20.5535C26.6193 20.5013 26.6368 20.4417 26.6368 20.38H26.4368ZM26.418 20.4425L26.2598 20.3202C26.2604 20.3194 26.2611 20.3187 26.2619 20.3181L26.3874 20.4738L26.513 20.6295C26.5365 20.6105 26.5577 20.5888 26.5762 20.5649L26.418 20.4425ZM26.3874 20.4738L26.3257 20.2836L24.0695 21.0154L24.1312 21.2057L24.1929 21.3959L26.4491 20.664L26.3874 20.4738ZM24.1312 21.2057L24.0682 21.0158C23.239 21.2907 22.4855 21.7556 21.8679 22.3734L22.0093 22.5148L22.1507 22.6562C22.7243 22.0825 23.4241 21.6508 24.1941 21.3955L24.1312 21.2057ZM22.0093 22.5148L21.8679 22.3734C21.2502 22.9912 20.7855 23.7448 20.5107 24.574L20.7005 24.6369L20.8904 24.6998C21.1456 23.9297 21.5771 23.2299 22.1507 22.6562L22.0093 22.5148ZM20.7005 24.6369L20.5104 24.5751L19.7854 26.8044L19.9755 26.8663L20.1657 26.9281L20.8907 24.6988L20.7005 24.6369ZM28.5468 33.9L28.4312 34.0632C28.6702 34.2326 28.9559 34.3239 29.2489 34.3244L29.2493 34.1244L29.2497 33.9244C29.0392 33.924 28.8341 33.8585 28.6624 33.7369L28.5468 33.9ZM29.2493 34.1244L29.1463 34.2959L29.1494 34.2977L29.2524 34.1263L29.3554 33.9549L29.3523 33.953L29.2493 34.1244ZM29.2524 34.1263L29.2528 34.3263C29.5494 34.3257 29.8383 34.2321 30.079 34.0588L29.9621 33.8965L29.8452 33.7342C29.6724 33.8587 29.4649 33.9258 29.252 33.9263L29.2524 34.1263ZM29.9621 33.8965L30.079 34.0588C30.3196 33.8855 30.4999 33.6411 30.5945 33.3601L30.4049 33.2963L30.2154 33.2325C30.1474 33.4343 30.018 33.6098 29.8452 33.7342L29.9621 33.8965ZM30.4049 33.2963L30.5951 33.3581L30.9507 32.2644L30.7605 32.2025L30.5704 32.1407L30.2147 33.2344L30.4049 33.2963ZM30.7605 32.2025L30.9502 32.2659C31.0133 32.077 31.1194 31.9052 31.2601 31.7643L31.1186 31.623L30.977 31.4817C30.7926 31.6665 30.6536 31.8916 30.5708 32.1392L30.7605 32.2025ZM31.1186 31.623L31.2601 31.7643C31.4008 31.6233 31.5723 31.5168 31.7612 31.4534L31.6974 31.2638L31.6337 31.0742C31.3862 31.1574 31.1614 31.2969 30.977 31.4817L31.1186 31.623ZM31.6974 31.2638L31.7593 31.454L32.878 31.0902L32.8162 30.9L32.7543 30.7098L31.6356 31.0736L31.6974 31.2638ZM32.8162 30.9L32.8829 31.0886C33.0892 31.0156 33.2758 30.8958 33.4281 30.7385L33.2844 30.5994L33.1407 30.4603C33.0314 30.5731 32.8975 30.6591 32.7495 30.7115L32.8162 30.9ZM33.2844 30.5994L33.4281 30.7385C33.5803 30.5813 33.694 30.3909 33.7603 30.1823L33.5697 30.1218L33.3791 30.0612C33.3315 30.2109 33.2499 30.3475 33.1407 30.4603L33.2844 30.5994ZM33.5697 30.1218L33.7603 30.1823C33.8266 29.9738 33.8436 29.7527 33.8101 29.5364L33.6124 29.567L33.4148 29.5977C33.4389 29.7529 33.4266 29.9115 33.3791 30.0612L33.5697 30.1218ZM33.6124 29.567L33.8101 29.5364C33.7765 29.3201 33.6933 29.1145 33.567 28.9358L33.4037 29.0513L33.2404 29.1667C33.331 29.295 33.3907 29.4425 33.4148 29.5977L33.6124 29.567ZM33.4037 29.0513L33.5664 28.9351C33.3869 28.6836 33.1304 28.4973 32.8358 28.4043L32.7755 28.595L32.7153 28.7858C32.9273 28.8527 33.1117 28.9867 33.2409 29.1675L33.4037 29.0513ZM32.7755 28.595L32.8372 28.4048L31.739 28.0491L31.6774 28.2394L31.6158 28.4297L32.7139 28.7853L32.7755 28.595ZM31.6774 28.2394L31.741 28.0498C31.5522 27.9865 31.3807 27.8803 31.2399 27.7395L31.0984 27.8809L30.957 28.0223C31.1416 28.2069 31.3664 28.3461 31.6138 28.429L31.6774 28.2394ZM31.0984 27.8809L31.2399 27.7395C31.0991 27.5987 30.9928 27.4271 30.9296 27.2383L30.7399 27.3019L30.5503 27.3655C30.6333 27.6129 30.7725 27.8378 30.957 28.0223L31.0984 27.8809ZM30.7399 27.3019L30.9301 27.24L30.5664 26.1219L30.3762 26.1838L30.186 26.2457L30.5497 27.3638L30.7399 27.3019ZM30.3762 26.1838L30.5649 26.1176C30.4672 25.8391 30.2848 25.5981 30.0433 25.4284L29.9283 25.592L29.8133 25.7556C29.9865 25.8774 30.1174 26.0502 30.1875 26.25L30.3762 26.1838ZM29.9283 25.592L30.0433 25.4284C29.8018 25.2586 29.5133 25.1687 29.2182 25.1711L29.2198 25.3711L29.2214 25.5711C29.4331 25.5693 29.6401 25.6339 29.8133 25.7556L29.9283 25.592ZM29.2198 25.3711L29.2182 25.1711C28.923 25.1735 28.636 25.2681 28.3973 25.4418L28.5149 25.6035L28.6326 25.7652C28.8038 25.6407 29.0097 25.5728 29.2214 25.5711L29.2198 25.3711ZM28.5149 25.6035L28.3973 25.4418C28.1586 25.6154 27.9802 25.8593 27.887 26.1394L28.0768 26.2025L28.2666 26.2657C28.3334 26.0648 28.4614 25.8898 28.6326 25.7652L28.5149 25.6035ZM28.0768 26.2025L27.8866 26.1406L27.5291 27.2388L27.7193 27.3007L27.9095 27.3626L28.267 26.2645L28.0768 26.2025ZM27.7193 27.3007L27.5294 27.2379C27.4679 27.4239 27.3649 27.5935 27.228 27.7336L27.3711 27.8734L27.5142 28.0131C27.6936 27.8294 27.8287 27.6072 27.9092 27.3634L27.7193 27.3007ZM27.3711 27.8734L27.228 27.7336C27.0911 27.8738 26.9241 27.9808 26.7396 28.0467L26.8068 28.235L26.874 28.4234C27.1158 28.3371 27.3348 28.1968 27.5142 28.0131L27.3711 27.8734ZM26.8068 28.235L26.745 28.0448L25.6262 28.4086L25.688 28.5988L25.7499 28.789L26.8686 28.4252L26.8068 28.235ZM25.688 28.5988L25.6219 28.4101C25.3435 28.5077 25.1026 28.6899 24.9329 28.9312L25.0965 29.0463L25.2601 29.1613C25.3818 28.9882 25.5546 28.8575 25.7542 28.7875L25.688 28.5988ZM25.0965 29.0463L24.9329 28.9312C24.7632 29.1726 24.6732 29.4609 24.6756 29.7559L24.8755 29.7543L25.0755 29.7528C25.0739 29.5412 25.1384 29.3344 25.2601 29.1613L25.0965 29.0463ZM24.8755 29.7543L24.6756 29.7559C24.6779 30.0509 24.7724 30.3378 24.9459 30.5764L25.1076 30.4588L25.2694 30.3412C25.145 30.1701 25.0772 29.9643 25.0755 29.7528L24.8755 29.7543ZM25.1076 30.4588L24.9459 30.5764C25.1193 30.8151 25.3631 30.9935 25.643 31.0867L25.7062 30.8969L25.7694 30.7072C25.5686 30.6403 25.3938 30.5124 25.2694 30.3412L25.1076 30.4588ZM25.7062 30.8969L25.6443 31.0871L26.7393 31.4434L26.8012 31.2532L26.863 31.063L25.7681 30.7067L25.7062 30.8969ZM26.8012 31.2532L26.7378 31.4429C26.927 31.5061 27.0989 31.6126 27.2397 31.7539L27.3814 31.6128L27.5231 31.4717C27.3383 31.2862 27.1128 31.1464 26.8645 31.0635L26.8012 31.2532ZM27.3814 31.6128L27.2397 31.7539C27.3804 31.8953 27.4863 32.0676 27.5487 32.257L27.7387 32.1944L27.9286 32.1318C27.8467 31.8832 27.7078 31.6571 27.5231 31.4717L27.3814 31.6128ZM27.7387 32.1944L27.5485 32.2563L27.9122 33.3738L28.1024 33.3119L28.2926 33.25L27.9289 32.1325L27.7387 32.1944ZM28.1024 33.3119L27.9138 33.3784C28.0113 33.655 28.1925 33.8944 28.4313 34.0633L28.5468 33.9L28.6623 33.7368C28.4911 33.6156 28.361 33.4438 28.291 33.2454L28.1024 33.3119ZM27.288 29.7738L27.3508 29.5839L27.2771 29.5595L27.2143 29.7494L27.1515 29.9393L27.2253 29.9637L27.288 29.7738ZM27.2143 29.7494L27.2804 29.9382L27.3679 29.9076L27.3018 29.7188L27.2357 29.53L27.1482 29.5606L27.2143 29.7494ZM27.3018 29.7188L27.3671 29.9078C27.8408 29.7442 28.2701 29.4732 28.6217 29.1161L28.4792 28.9758L28.3366 28.8355C28.0284 29.1486 27.6518 29.3862 27.2365 29.5298L27.3018 29.7188ZM28.4792 28.9758L28.6217 29.1161C28.9733 28.759 29.2375 28.3254 29.3937 27.8493L29.2037 27.7869L29.0136 27.7246C28.8766 28.1421 28.6449 28.5223 28.3366 28.8355L28.4792 28.9758ZM29.2037 27.7869L29.3936 27.8497L29.4186 27.7741L29.2287 27.7113L29.0388 27.6485L29.0138 27.7241L29.2037 27.7869ZM29.2287 27.7113L29.0378 27.771L29.0628 27.8509L29.2537 27.7913L29.4446 27.7316L29.4196 27.6516L29.2287 27.7113ZM29.2537 27.7913L29.0639 27.8543C29.2231 28.334 29.4923 28.7698 29.8498 29.1271L29.9912 28.9856L30.1325 28.8441C29.8191 28.5309 29.5831 28.1488 29.4435 27.7283L29.2537 27.7913ZM29.9912 28.9856L29.8498 29.1271C30.2074 29.4843 30.6435 29.753 31.1233 29.9118L31.1862 29.7219L31.249 29.532C30.8283 29.3928 30.446 29.1573 30.1325 28.8441L29.9912 28.9856ZM31.1862 29.7219L31.1251 29.9124L31.2226 29.9436L31.2837 29.7532L31.3447 29.5627L31.2472 29.5315L31.1862 29.7219ZM31.2837 29.7532L31.2209 29.5633L31.1453 29.5883L31.208 29.7782L31.2708 29.9681L31.3464 29.9431L31.2837 29.7532ZM31.208 29.7782L31.1452 29.5883C30.6648 29.7474 30.2283 30.0167 29.8705 30.3746L30.012 30.516L30.1535 30.6574C30.4671 30.3436 30.8498 30.1075 31.2709 29.968L31.208 29.7782ZM30.012 30.516L29.8705 30.3746C29.5128 30.7326 29.2438 31.1693 29.085 31.6498L29.2749 31.7125L29.4648 31.7753C29.604 31.354 29.8399 30.9712 30.1535 30.6574L30.012 30.516ZM29.2749 31.7125L29.085 31.6498L29.06 31.7254L29.2499 31.7882L29.4398 31.8509L29.4648 31.7753L29.2749 31.7125ZM29.2499 31.7882L29.4401 31.7263L29.4151 31.6494L29.2249 31.7113L29.0347 31.7731L29.0597 31.85L29.2499 31.7882ZM29.2249 31.7113L29.4149 31.6487C29.2561 31.167 28.9865 30.7294 28.6279 30.3708L28.4865 30.5122L28.3451 30.6536C28.6595 30.968 28.8958 31.3517 29.035 31.7739L29.2249 31.7113ZM28.4865 30.5122L28.6279 30.3708C28.2694 30.0122 27.8317 29.7427 27.3501 29.5839L27.2874 29.7738L27.2248 29.9637C27.647 30.103 28.0307 30.3392 28.3451 30.6536L28.4865 30.5122Z" fill="#E9ADA3" mask="url(#path-2-inside-1_1684_24308)"/>
</svg>
