<svg width="47" height="47" viewBox="0 0 47 47" fill="none" xmlns="http://www.w3.org/2000/svg">
<rect x="0.5" y="0.5" width="46" height="46" rx="4" fill="#C87F94"/>
<path d="M33.5 18.8125V31C33.5 34.75 31.2625 36 28.5 36H18.5C15.7375 36 13.5 34.75 13.5 31V18.8125C13.5 14.75 15.7375 13.8125 18.5 13.8125C18.5 14.5875 18.8125 15.2875 19.325 15.8C19.8375 16.3125 20.5375 16.625 21.3125 16.625H25.6875C27.2375 16.625 28.5 15.3625 28.5 13.8125C31.2625 13.8125 33.5 14.75 33.5 18.8125Z" stroke="#FDF9F5" stroke-width="2" stroke-linecap="round" stroke-linejoin="round"/>
<path d="M28.5 13.8125C28.5 15.3625 27.2375 16.625 25.6875 16.625H21.3125C20.5375 16.625 19.8375 16.3125 19.325 15.8C18.8125 15.2875 18.5 14.5875 18.5 13.8125C18.5 12.2625 19.7625 11 21.3125 11H25.6875C26.4625 11 27.1625 11.3125 27.675 11.825C28.1875 12.3375 28.5 13.0375 28.5 13.8125Z" stroke="#FDF9F5" stroke-width="2" stroke-linecap="round" stroke-linejoin="round"/>
<path d="M18.5 24.75H23.5" stroke="#FDF9F5" stroke-width="2" stroke-linecap="round" stroke-linejoin="round"/>
<path d="M18.5 29.75H28.5" stroke="#FDF9F5" stroke-width="2" stroke-linecap="round" stroke-linejoin="round"/>
</svg>
