<svg width="47" height="47" viewBox="0 0 47 47" fill="none" xmlns="http://www.w3.org/2000/svg">
<rect x="0.5" y="0.5" width="46" height="46" rx="4" fill="#A5B7C8"/>
<path d="M36 16.3125V22.6875C36 24.275 35.475 25.6125 34.5375 26.5375C33.6125 27.475 32.275 28 30.6875 28V30.2625C30.6875 31.1125 29.7375 31.625 29.0375 31.15L27.825 30.35C27.9375 29.9625 27.9875 29.5375 27.9875 29.0875V24C27.9875 21.45 26.2875 19.75 23.7375 19.75H15.25C15.075 19.75 14.9125 19.7625 14.75 19.775V16.3125C14.75 13.125 16.875 11 20.0625 11H30.6875C33.875 11 36 13.125 36 16.3125Z" stroke="#FDF9F5" stroke-width="2" stroke-miterlimit="10" stroke-linecap="round" stroke-linejoin="round"/>
<path d="M27.9875 24V29.0875C27.9875 29.5375 27.9375 29.9625 27.825 30.35C27.3625 32.1875 25.8375 33.3375 23.7375 33.3375H20.3375L16.5625 35.85C16 36.2375 15.25 35.825 15.25 35.15V33.3375C13.975 33.3375 12.9125 32.9125 12.175 32.175C11.425 31.425 11 30.3625 11 29.0875V24C11 21.625 12.475 19.9875 14.75 19.775C14.9125 19.7625 15.075 19.75 15.25 19.75H23.7375C26.2875 19.75 27.9875 21.45 27.9875 24Z" stroke="#FDF9F5" stroke-width="2" stroke-miterlimit="10" stroke-linecap="round" stroke-linejoin="round"/>
</svg>
